# xmcd CD database file
#
# Track frame offsets:
#	150
#	17945
#	32783
#	47560
#	66138
#	79023
#	97065
#	110600
#	125770
#	139255
#	156508
#	171663
#	186673
#	207610
#
# Disc length: 3008 seconds
#
# Revision: 2
# Processed by: cddbd v1.5.2PL0 Copyright (c) Steve Scherf et al.
# Submitted via: ACXtractor (MTCDDB.DLL V2003.07.15)
#
DISCID=de0bbe0e
DTITLE=Isla Grant - Only Yesterday
DYEAR=2002
DGENRE=Country
TTITLE0=Partners In Rhyme
TTITLE1=Lovely High Conn
TTITLE2=Will You Walk With Me
TTITLE3=Only Yesterday
TTITLE4=Love Me Tonight
TTITLE5=Simply Being You
TTITLE6=Like You Always Could Do
TTITLE7=A Single Yellow Rose
TTITLE8=Over The Years
TTITLE9=Whats A Girl To Do
TTITLE10=Leave Me The Way That I Am
TTITLE11=Every Moment Of Every Hour
TTITLE12=Love Just Walked Out The Door
TTITLE13=He's There For Me
EXTD=YEAR: 2002 ID3G:   2
EXTT0=
EXTT1=
EXTT2=
EXTT3=
EXTT4=
EXTT5=
EXTT6=
EXTT7=
EXTT8=
EXTT9=
EXTT10=
EXTT11=
EXTT12=
EXTT13=
PLAYORDER=
